<?xml version="1.0" encoding="UTF-8"?>
<svg id="Layer_2" data-name="Layer 2" xmlns="http://www.w3.org/2000/svg" viewBox="0 0 99.33 37.92">
  <defs>
    <style>
      .cls-1 {
        fill: #f7c939;
      }
    </style>
  </defs>
  <g id="Layer_1-2" data-name="Layer 1">
    <g>
      <path d="M73.95,33.92c.52-.03,1.05-.04,1.49.24.22.14.7.54.7,1.29,0,.47-.18.8-.28.94-.33.53-.85.71-1.46.74-.15.01-.3,0-.45,0v-3.21ZM74.41,37.72c.62-.06.88-.11,1.15-.23.13-.06.38-.18.64-.49.5-.59.55-1.29.55-1.55,0-.79-.35-1.54-1.06-1.9-.19-.09-.32-.14-.71-.21-.52-.04-.74-.06-1.64-.04v4.42h1.08Z"/>
      <polygon points="78.31 33.31 78.31 37.74 80.71 37.74 80.71 37.13 78.94 37.13 78.94 35.61 80.73 35.61 80.73 35.01 78.95 35.01 78.95 33.93 80.74 33.93 80.74 33.31 78.31 33.31"/>
      <path d="M84.77,33.95c-.13-.16-.23-.3-.39-.42-.35-.28-.73-.31-.89-.31-.54,0-.86.27-.99.42-.25.28-.28.61-.28.74,0,.23.08.64.55.95.29.18.62.26.93.43.29.16.51.37.51.72,0,.3-.18.57-.45.69-.04.02-.17.06-.32.06-.31,0-.58-.18-.74-.42-.06-.09-.12-.21-.2-.42l-.6.13c.12.37.23.67.54.93.38.33.81.36.98.36.62,0,1.13-.35,1.35-.93.08-.23.09-.38.09-.49,0-.21-.05-.62-.48-.96-.11-.09-.21-.14-.34-.21l-.81-.41c-.06-.03-.36-.16-.36-.47,0-.1.05-.38.33-.51.09-.04.17-.05.26-.06.18,0,.39.04.62.32l.13.17.56-.32Z"/>
      <rect x="86.47" y="33.29" width=".66" height="4.44"/>
      <path d="M92.74,34.08c-.12-.12-.23-.24-.37-.34-.59-.47-1.16-.52-1.45-.52-.34,0-1.17.08-1.78.84-.47.59-.51,1.21-.51,1.49,0,.66.26,1.31.75,1.75.55.49,1.24.53,1.49.53.85,0,1.3-.38,1.54-.64.42-.47.53-.98.56-1.19.04-.26.03-.5.03-.59h-1.82s0,.62,0,.62h1.11c-.02.18-.03.23-.07.32-.07.19-.18.35-.33.49-.38.36-.82.39-1,.39-.93,0-1.62-.76-1.62-1.68,0-.25.06-.88.63-1.34.4-.33.81-.37,1-.37.6,0,1.01.34,1.16.47l.25.24.43-.46Z"/>
      <path d="M97.8,35.59c0,.13,0,.25.01.37,0,.14.02.28.03.42-.48-.5-.96-1.01-1.46-1.52-.61-.62-1.24-1.24-1.86-1.86v4.73h.66v-2.05c0-.19,0-.38-.01-.57,0-.21-.03-.42-.04-.64.3.33.59.66.9.98.3.31.59.61.89.91.51.51,1.01,1.02,1.52,1.54v-4.61h-.65v2.28Z"/>
      <path d="M19.97,14.65c.95-1.48,1.45-3.2,1.45-5.16,0-1.38-.24-2.59-.69-3.73-.45-1.14-1.14-2.09-1.93-2.88-.87-.77-1.85-1.4-3.01-1.85-1.19-.45-2.49-.64-3.94-.64H0v28.91h5.53v-10.63h4.73l5.53,10.63h5.58v-1.4l-5.37-10c1.67-.74,2.99-1.83,3.97-3.25M14.65,12.35c-.82.71-1.9,1.14-3.25,1.14h-5.87V5.37h5.87c1.35,0,2.43.34,3.25,1.06.77.74,1.16,1.72,1.16,2.99s-.4,2.22-1.16,2.93"/>
      <path d="M40.22,13.78c-.5-1.16-1.22-2.14-2.09-3.02-.85-.82-1.85-1.48-3.01-1.93-1.16-.45-2.43-.69-3.84-.69-1.48,0-2.88.29-4.1.82-1.27.5-2.35,1.22-3.2,2.17-.9.95-1.59,2.06-2.09,3.39-.48,1.3-.77,2.78-.77,4.42s.29,3.02.77,4.36c.5,1.32,1.19,2.43,2.09,3.39.85,1.01,1.93,1.72,3.2,2.25,1.22.5,2.62.77,4.1.77,2.09,0,3.94-.48,5.45-1.43,1.59-.95,2.78-2.3,3.49-4.02v-1.43h-4.84c-.85,1.43-2.17,2.11-3.91,2.11-1.3,0-2.35-.37-3.2-1.08-.87-.77-1.46-1.8-1.72-3.17h14.44l.08-2.83v-.05c-.05-1.48-.34-2.8-.85-4.02M26.55,16.45c.32-1.22.85-2.17,1.67-2.83.82-.63,1.8-.95,2.99-.95s2.17.32,2.94.95c.77.66,1.3,1.61,1.61,2.83h-9.2Z"/>
      <path d="M60.16,25.07l-.69.34-1.45-2.96-2.91,3.2v-12.99l3.86,2.83c-.13-2.17-.85-3.91-2.17-5.18-1.43-1.43-3.52-2.17-6.16-2.17-2.17,0-4.02.5-5.55,1.51-1.53.93-2.57,2.25-3.07,3.91v1.4h4.73c.27-.77.71-1.32,1.35-1.72.63-.4,1.35-.58,2.25-.58,1.14,0,2.01.32,2.62.95.64.61.95,1.53.95,2.65v.05l-5.71.37c-1.14.03-2.14.21-2.99.58-.9.34-1.67.85-2.3,1.43-.64.58-1.14,1.27-1.48,2.09-.37.77-.5,1.67-.5,2.62,0,.9.13,1.74.5,2.57.34.77.82,1.43,1.43,1.98.64.58,1.38.98,2.22,1.29.85.29,1.8.45,2.83.45,1.4,0,2.67-.26,3.76-.79,1.14-.56,2.04-1.32,2.67-2.27.08,1.06.34,1.72.85,2.09.45.4,1.3.58,2.51.58h2.72v-4.38c-.12.07-.16.09-.26.15M53.92,21.29c0,1.3-.4,2.27-1.16,3.04-.77.74-1.85,1.09-3.25,1.09-1.03,0-1.85-.16-2.43-.58-.58-.4-.9-.98-.9-1.72,0-.66.27-1.24.85-1.67.58-.45,1.35-.66,2.35-.71l4.55-.26v.82Z"/>
      <path d="M70.66,13.01c.95,0,1.8.24,2.51.74.77.45,1.32,1.11,1.67,2.01h4.92v-1.43c-.53-1.93-1.61-3.44-3.23-4.52-1.64-1.08-3.57-1.67-5.92-1.67-1.53,0-2.93.29-4.18.82-1.27.5-2.35,1.22-3.25,2.17-.9.95-1.64,2.06-2.12,3.39-.29.66-.45,1.4-.56,2.12l5.05,3.73-5.05.55,1.64,3.15-.59.3c.42.93.94,1.66,1.57,2.32.9,1.01,1.93,1.72,3.2,2.25,1.27.5,2.62.77,4.1.77,2.3,0,4.26-.58,5.92-1.69,1.61-1.14,2.75-2.67,3.41-4.65v-1.45h-4.92c-.29.93-.79,1.64-1.56,2.17-.74.55-1.64.82-2.62.82-1.46,0-2.62-.58-3.52-1.67-.9-1.14-1.35-2.57-1.35-4.28s.45-3.2,1.3-4.28c.9-1.08,2.09-1.64,3.57-1.64"/>
      <path d="M97.4,10.5c-1.27-1.53-3.07-2.35-5.37-2.35-1.22,0-2.38.24-3.46.69-1.03.45-1.93,1.11-2.7,1.98V0h-5.34v29.3h5.34v-11.58c0-1.4.4-2.57,1.22-3.49.77-.85,1.8-1.3,3.09-1.3,1.22,0,2.12.37,2.8,1.14.69.77,1.01,1.85,1.01,3.2v12.03h5.34v-12.3c0-2.8-.61-4.97-1.93-6.51"/>
      <polygon class="cls-1" points="61.56 24.37 59.48 25.42 58.02 22.45 55.11 25.65 55.11 12.67 65.56 20.36 60.51 20.92 62.15 24.07 61.56 24.37"/>
    </g>
  </g>
</svg>